<svg xmlns="http://www.w3.org/2000/svg" viewBox="0 0 24 24" width="24" height="24" color="currentColor" fill="none" stroke="currentColor" stroke-width="1.5" stroke-linecap="round" stroke-linejoin="round">
    <path d="M3 12C3 7.75737 3 5.63605 4.31802 4.31803C5.63604 3.00002 7.75736 3.00002 12 3.00002C16.2426 3.00002 18.364 3.00002 19.682 4.31803C21 5.63605 21 7.75737 21 12C21 16.2427 21 18.364 19.682 19.682C18.364 21 16.2426 21 12 21C7.75736 21 5.63604 21 4.31802 19.682C3 18.364 3 16.2427 3 12Z" />
    <path d="M3.5 8.00002H20.5" />
    <path d="M17 17C17 14.2386 14.7614 12 12 12C9.23858 12 7 14.2386 7 17" />
    <path d="M12.707 15.293L11.2928 16.7072" />
</svg>