<svg xmlns="http://www.w3.org/2000/svg" viewBox="0 0 24 24" width="24" height="24" color="currentColor" fill="none" stroke="currentColor" stroke-width="1.5" stroke-linecap="round" stroke-linejoin="round">
    <path d="M4.26781 18.8447C4.49269 20.515 5.87613 21.8235 7.55966 21.9009C8.97627 21.966 10.4153 22 12 22C13.5847 22 15.0237 21.966 16.4403 21.9009C18.1239 21.8235 19.5073 20.515 19.7322 18.8447C19.879 17.7547 20 16.6376 20 15.5C20 14.3624 19.879 13.2453 19.7322 12.1553C19.5073 10.485 18.1239 9.17649 16.4403 9.09909C15.0237 9.03397 13.5847 9 12 9C10.4153 9 8.97627 9.03397 7.55966 9.09909C5.87613 9.17649 4.49269 10.485 4.26781 12.1553C4.12105 13.2453 4 14.3624 4 15.5C4 16.6376 4.12105 17.7547 4.26781 18.8447Z" />
    <path d="M7.5 9V6.5C7.5 4.01472 9.51472 2 12 2C14.4853 2 16.5 4.01472 16.5 6.5V9" />
    <path d="M12.125 15.5H12M12.25 15.5C12.25 15.6381 12.1381 15.75 12 15.75C11.8619 15.75 11.75 15.6381 11.75 15.5C11.75 15.3619 11.8619 15.25 12 15.25C12.1381 15.25 12.25 15.3619 12.25 15.5Z" />
    <path d="M8.125 15.5H8M8.25 15.5C8.25 15.6381 8.13807 15.75 8 15.75C7.86193 15.75 7.75 15.6381 7.75 15.5C7.75 15.3619 7.86193 15.25 8 15.25C8.13807 15.25 8.25 15.3619 8.25 15.5Z" />
    <path d="M16.125 15.5H16M16.25 15.5C16.25 15.6381 16.1381 15.75 16 15.75C15.8619 15.75 15.75 15.6381 15.75 15.5C15.75 15.3619 15.8619 15.25 16 15.25C16.1381 15.25 16.25 15.3619 16.25 15.5Z" />
</svg>